<?xml version="1.0" encoding="UTF-8" standalone="no"?>
<svg
   xmlns:dc="http://purl.org/dc/elements/1.1/"
   xmlns:cc="http://creativecommons.org/ns#"
   xmlns:rdf="http://www.w3.org/1999/02/22-rdf-syntax-ns#"
   xmlns:svg="http://www.w3.org/2000/svg"
   xmlns="http://www.w3.org/2000/svg"
   xmlns:sodipodi="http://sodipodi.sourceforge.net/DTD/sodipodi-0.dtd"
   xmlns:inkscape="http://www.inkscape.org/namespaces/inkscape"
   version="1.0"
   width="1184.000000pt"
   height="1184.000000pt"
   viewBox="0 0 1184.000000 1184.000000"
   preserveAspectRatio="xMidYMid meet"
   id="svg10"
   sodipodi:docname="safari-pinned-tab.svg"
   inkscape:version="0.92.4 (5da689c313, 2019-01-14)">
  <defs
     id="defs14" />
  <sodipodi:namedview
     pagecolor="#ffffff"
     bordercolor="#666666"
     borderopacity="1"
     objecttolerance="10"
     gridtolerance="10"
     guidetolerance="10"
     inkscape:pageopacity="0"
     inkscape:pageshadow="2"
     inkscape:window-width="1920"
     inkscape:window-height="1017"
     id="namedview12"
     showgrid="false"
     showguides="true"
     inkscape:guide-bbox="true"
     inkscape:zoom="0.39544563"
     inkscape:cx="1131.8785"
     inkscape:cy="648.69682"
     inkscape:window-x="-8"
     inkscape:window-y="32"
     inkscape:window-maximized="1"
     inkscape:current-layer="svg10" />
  <metadata
     id="metadata2">
Created by potrace 1.11, written by Peter Selinger 2001-2013
<rdf:RDF>
  <cc:Work
     rdf:about="">
    <dc:format>image/svg+xml</dc:format>
    <dc:type
       rdf:resource="http://purl.org/dc/dcmitype/StillImage" />
  </cc:Work>
</rdf:RDF>
</metadata>
  <g
     id="g847"
     transform="matrix(48.929017,0,0,48.283574,-236.40356,-56.708814)">
    <path
       style="fill:#c28a4a;stroke-width:0.03169673"
       d="m 16.609815,25.537783 c 0,-0.01948 -0.08549,-0.119448 -0.18998,-0.222139 -0.453496,-0.445694 -0.901335,-1.068875 -1.098166,-1.528127 -0.125039,-0.291746 -0.132366,-0.326483 -0.128125,-0.60743 0.0025,-0.163894 0.01946,-0.332198 0.03774,-0.374009 0.114411,-0.261613 0.177289,-0.355659 0.338728,-0.506631 0.09942,-0.09297 0.180759,-0.180213 0.180759,-0.193871 0,-0.01366 0.08549,-0.0633 0.18998,-0.110317 0.183223,-0.08244 0.208196,-0.0855 0.7021,-0.08585 0.500424,-3.59e-4 0.515588,0.0015 0.663939,0.08338 0.334189,0.184352 0.789822,0.692991 0.789822,0.881706 0,0.02879 0.01768,0.113194 0.0393,0.18757 0.03241,0.111519 0.02944,0.18224 -0.01693,0.403344 -0.105251,0.501853 -0.533415,1.182076 -1.14666,1.821698 -0.253339,0.264235 -0.362509,0.339726 -0.362509,0.250675 z m 0.0061,-3.914161 c -0.07143,-0.04063 -0.105199,-0.22314 -0.105199,-0.568544 0,-0.399434 0.07128,-0.694488 0.242807,-1.005054 0.145175,-0.262854 0.233044,-0.371677 0.501789,-0.621447 0.310982,-0.289025 0.642808,-0.460215 1.109881,-0.57259 l 0.381785,-0.09186 1.059817,-0.0036 c 1.172827,-0.0039 1.319132,-0.02146 1.712958,-0.205178 0.500287,-0.233382 0.932679,-0.773553 0.992181,-1.239497 0.04029,-0.315506 0.126464,-0.303113 0.251035,0.0361 0.24129,0.657045 0.164912,1.360525 -0.211965,1.952293 -0.06028,0.09466 -0.235983,0.288665 -0.390445,0.431131 -0.300055,0.276752 -0.5528,0.42065 -1.00036,0.569545 -0.237466,0.079 -0.245228,0.0795 -1.576762,0.101013 -1.426326,0.02305 -1.541229,0.03454 -1.871323,0.187127 -0.432123,0.199754 -0.696562,0.437403 -0.8923,0.801902 -0.134408,0.250293 -0.144966,0.26213 -0.203899,0.228609 z m -0.362948,-1.064003 c -0.02191,-0.01246 -0.181489,-0.418646 -0.354622,-0.902633 l -0.314788,-0.879975 -0.04706,-0.532141 c -0.02588,-0.292677 -0.09255,-1.100011 -0.148152,-1.794075 -0.0556,-0.694064 -0.118418,-1.385087 -0.139591,-1.535606 -0.05298,-0.376632 -0.07808,-6.8807943 -0.02892,-7.4955853 0.03826,-0.478524 0.07997,-0.985041 0.2479,-3.010397 l 0.109676,-1.32275 0.318415,-0.89491 c 0.175128,-0.4922006 0.326363,-0.9022253 0.336077,-0.9111661 0.06864,-0.063175 0.156282,0.1191269 0.452618,0.9415226 0.353504,0.9810477 0.33441,0.8877735 0.419749,2.0504675 0.03024,0.41201 0.09502,1.176653 0.166174,1.961319 0.130411,1.438233 0.132353,1.50743 0.132353,4.7158703 0,1.890923 -0.01357,3.308401 -0.03382,3.531739 -0.06662,0.734938 -0.202006,2.360907 -0.247544,2.972962 -0.09764,1.312304 -0.09098,1.275615 -0.378264,2.082951 -0.34557,0.971123 -0.395882,1.076058 -0.490204,1.022407 z m -2.055052,-1.876475 c -0.09995,-0.02434 -0.305349,-0.0985 -0.456451,-0.164792 -0.779023,-0.341798 -1.377246,-0.923893 -1.649953,-1.605474 -0.175951,-0.439754 -0.172871,-0.331647 -0.173123,-6.07777 -1.56e-4,-3.5390183 0.01137,-5.4066423 0.03435,-5.5646733 0.07355,-0.505889 0.300023,-0.964218 0.655265,-1.326105 0.191966,-0.195558 0.921153,-0.7210472 1.112318,-0.8015936 0.227212,-0.095735 0.595074,-0.1931156 0.729505,-0.1931156 0.05689,0 0.120067,0.018439 0.140389,0.040975 0.02703,0.029975 0.03689,2.1483462 0.03671,7.8908885 l -2.34e-4,7.849915 -0.123529,-0.002 c -0.06794,-0.0011 -0.205304,-0.02192 -0.30525,-0.04625 z m 3.774699,0.01317 c -0.06337,-0.05832 -0.06017,-15.7723047 0.0032,-15.7946889 0.06652,-0.023494 0.532404,0.099224 0.822909,0.2167634 0.948376,0.3837195 1.622215,1.1348682 1.823796,2.0330422 0.04714,0.210029 0.05264,0.812317 0.05196,5.6892053 -6.51e-4,4.6465 -0.0079,5.484991 -0.04866,5.661467 -0.168176,0.727417 -0.623952,1.355616 -1.284462,1.770385 -0.432543,0.271617 -1.256811,0.526847 -1.368749,0.423826 z"
       id="path861"
       inkscape:connector-curvature="0"
       sodipodi:nodetypes="ccccccscccsccccccscscccscscscccccccccccccccscsccsccccccccscccscccsccccccscscc" />
  </g>
</svg>
